<svg width="18" height="18" viewBox="0 0 18 18" fill="none" xmlns="http://www.w3.org/2000/svg">
<path d="M17.4999 12V1.02636C17.4999 -0.0387995 17.0651 -4.25437e-06 15.9999 -4.25437e-06L1.99992 4.94765e-10C0.934785 4.94765e-10 0.499919 -0.038811 0.499919 1.02635L0.5 15.5264C0.5 16.5915 0.434785 17.0264 1.49992 17.0264H12.4999C13.0114 17.0264 13.1382 16.8881 13.4999 16.5264L16.9999 13C17.3616 12.6383 17.4999 12.5115 17.4999 12ZM12.4999 15.5264V12.0264H15.9999L12.4999 15.5264ZM16.4999 1.02636V10.9766L11.9999 11.0264C11.4674 11.0264 11.4999 10.9938 11.4999 11.5264V16.0264H1.49992V1.02636H16.4999Z" fill="white"/>
</svg>
