<svg width="18" height="18" viewBox="0 0 18 18" fill="none" xmlns="http://www.w3.org/2000/svg">
<path d="M2.25 6V14.25C2.25 15.9007 3.5955 16.5 4.5 16.5H15.75V15H4.509C4.1625 14.991 3.75 14.8545 3.75 14.25C3.75 14.1742 3.75675 14.1067 3.768 14.0452C3.852 13.6132 4.206 13.5075 4.509 13.5H15.75V3C15.75 2.17275 15.0773 1.5 14.25 1.5H4.5C3.5955 1.5 2.25 2.09925 2.25 3.75V6ZM4.5 3H14.25V12H3.75V3.75C3.75 3.1455 4.1625 3.009 4.5 3Z" fill="white"/>
<path d="M8.25 10.5H9.75V8.25H12V6.75H9.75V4.5H8.25V6.75H6V8.25H8.25V10.5Z" fill="white"/>
</svg>
