<svg width="20" height="20" viewBox="0 0 20 20" fill="none" xmlns="http://www.w3.org/2000/svg">
<path d="M19.7478 4.11472C19.6729 4.06268 19.583 4.02925 19.4877 4.01799C19.3924 4.00673 19.2954 4.01808 19.2071 4.05081L10.6013 7.2716C10.2271 7.41251 9.75854 7.47949 9.27748 7.47949C8.60666 7.4818 7.91267 7.34706 7.42893 7.16381C7.28152 7.11014 7.14115 7.04303 7.01022 6.96361C7.04586 6.94821 7.0904 6.93128 7.1394 6.91434L14.9665 3.98536L16.1336 4.41655V3.15611C16.1353 3.06622 16.1136 2.97715 16.0699 2.89556C16.0263 2.81396 15.9618 2.74194 15.8815 2.68488C15.8068 2.6329 15.7172 2.59949 15.6222 2.58823C15.5273 2.57697 15.4306 2.58829 15.3425 2.62098L6.73673 5.84177C6.47125 5.93416 6.24319 6.04812 6.05076 6.21366C5.82793 6.40366 5.70138 6.66229 5.69887 6.93281C5.69887 6.94051 5.70154 6.9536 5.70154 6.9536V18.2953L5.69976 18.3107C5.69976 18.3138 5.70243 18.3153 5.70243 18.3184V18.3307H5.70421C5.72203 18.7272 5.95366 18.9798 6.17459 19.1584C6.86947 19.6882 8.0365 19.9846 9.27837 20C9.86634 20 10.4632 19.923 11.0156 19.7182L19.624 16.4966C19.8512 16.4119 19.9999 16.2017 19.9999 15.9638V4.58594C20.0013 4.49611 19.9794 4.40715 19.9358 4.3256C19.8921 4.24406 19.8279 4.172 19.7478 4.11472V4.11472ZM14.2895 1.9588C14.2743 1.78941 14.1933 1.62771 14.049 1.5307C13.974 1.47866 13.8841 1.44522 13.7888 1.43397C13.6936 1.42271 13.5966 1.43405 13.5082 1.46679L4.90243 4.68604C4.52827 4.82617 4.05878 4.89393 3.57861 4.89393C2.90779 4.89547 2.2138 4.76073 1.73006 4.5767C1.5825 4.52393 1.44209 4.45732 1.31135 4.37805C1.34699 4.36265 1.39153 4.34571 1.44053 4.32877L9.26857 1.3998L10.4356 1.83098V0.572082C10.4372 0.482142 10.4153 0.393054 10.3715 0.311462C10.3276 0.229869 10.2631 0.157879 10.1826 0.100859C10.1078 0.0488899 10.018 0.0154881 9.92291 0.0042306C9.82781 -0.00702692 9.73096 0.00428382 9.64273 0.0369515L1.03697 3.25851C0.77149 3.35091 0.544319 3.46409 0.351001 3.63041C0.1285 3.82053 0.00227911 4.07914 0 4.34956C0 4.3588 0.0026724 4.37112 0.0026724 4.37112V15.749H0.00445443C0.0222717 16.1455 0.253897 16.3981 0.474832 16.5767C1.16971 17.1064 2.33674 17.4021 3.5795 17.4175C3.91699 17.4158 4.2534 17.3843 4.58351 17.3236V6.95283C4.5746 6.41385 4.82404 5.89643 5.26235 5.52377C5.56601 5.26918 5.9268 5.07108 6.32248 4.94167L14.2895 1.9588V1.9588Z" fill="black"/>
</svg>
