<svg width="19" height="19" viewBox="0 0 19 19" fill="none" xmlns="http://www.w3.org/2000/svg">
<path d="M17.7779 1.65286C17.1678 1.04336 16.3255 0.666656 15.3958 0.666656C14.4661 0.666656 13.6229 1.04336 13.0136 1.65286L2.67832 11.9781L0.851257 17.3594C0.79366 17.5267 0.784441 17.7069 0.824659 17.8791C0.864876 18.0514 0.9529 18.2089 1.07863 18.3335L1.08187 18.3367C1.20738 18.4635 1.3664 18.5519 1.54034 18.5917C1.71428 18.6315 1.89597 18.621 2.06418 18.5615L2.0577 18.5639L7.44424 16.7386L17.7795 6.41333C18.3896 5.80382 18.7667 4.96232 18.7667 4.0335C18.7667 3.10469 18.3896 2.26237 17.7795 1.65367L17.7779 1.65286ZM6.78478 15.6813L2.17099 17.2446L3.73589 12.6353L11.6534 4.72546L14.7015 7.77058L6.78478 15.6813ZM16.9202 5.55566L15.5609 6.91371L12.5128 3.8686L13.8721 2.51054C14.0711 2.30541 14.309 2.14188 14.5718 2.02946C14.8347 1.91705 15.1173 1.858 15.4032 1.85575C15.6891 1.85351 15.9726 1.90812 16.2372 2.01639C16.5018 2.12467 16.7422 2.28445 16.9444 2.48643C17.1465 2.68841 17.3065 2.92856 17.4149 3.19289C17.5232 3.45722 17.5779 3.74045 17.5757 4.02609C17.5734 4.31173 17.5143 4.59407 17.4018 4.85667C17.2893 5.11926 17.1256 5.35687 16.9202 5.55566V5.55566Z" fill="white"/>
</svg>
