<svg width="18" height="18" viewBox="0 0 18 18" fill="none" xmlns="http://www.w3.org/2000/svg">
<path d="M14.25 9.75V13.5C14.25 13.9125 13.9125 14.25 13.5 14.25H4.5C4.0875 14.25 3.75 13.9125 3.75 13.5V9.75C3.75 9.3375 3.4125 9 3 9C2.5875 9 2.25 9.3375 2.25 9.75V14.25C2.25 15.075 2.925 15.75 3.75 15.75H14.25C15.075 15.75 15.75 15.075 15.75 14.25V9.75C15.75 9.3375 15.4125 9 15 9C14.5875 9 14.25 9.3375 14.25 9.75ZM9.75 9.5025L11.16 8.0925C11.2294 8.02306 11.3119 7.96798 11.4026 7.93041C11.4933 7.89283 11.5906 7.87348 11.6888 7.87348C11.7869 7.87348 11.8842 7.89283 11.9749 7.93041C12.0656 7.96798 12.1481 8.02306 12.2175 8.0925C12.2869 8.16194 12.342 8.24437 12.3796 8.33509C12.4172 8.42582 12.4365 8.52305 12.4365 8.62125C12.4365 8.71945 12.4172 8.81668 12.3796 8.90741C12.342 8.99813 12.2869 9.08056 12.2175 9.15L9.525 11.8425C9.45561 11.912 9.3732 11.9672 9.28247 12.0048C9.19174 12.0425 9.09448 12.0618 8.99625 12.0618C8.89802 12.0618 8.80076 12.0425 8.71003 12.0048C8.6193 11.9672 8.53689 11.912 8.4675 11.8425L5.775 9.15C5.63477 9.00977 5.55598 8.81957 5.55598 8.62125C5.55598 8.42293 5.63477 8.23273 5.775 8.0925C5.91523 7.95227 6.10543 7.87348 6.30375 7.87348C6.50207 7.87348 6.69227 7.95227 6.8325 8.0925L8.25 9.5025V3C8.25 2.5875 8.5875 2.25 9 2.25C9.4125 2.25 9.75 2.5875 9.75 3V9.5025Z" fill="white"/>
</svg>
