<svg width="23" height="19" viewBox="0 0 23 19" fill="none" xmlns="http://www.w3.org/2000/svg">
<path d="M22.5643 4.30631L11.872 0.0598586C11.7688 0.019372 11.6561 -0.00107154 11.5423 4.32618e-05C11.4284 0.00115806 11.3163 0.0238026 11.2143 0.0662985C11.1123 0.108794 11.0229 0.170052 10.9529 0.245532C10.8828 0.321012 10.8339 0.408779 10.8096 0.502327C10.8072 0.509262 9.95181 3.85205 8.68157 7.18443C8.24854 8.32667 7.76354 9.45572 7.25709 10.4475L8.63043 10.9926C10.2801 7.77323 11.5866 3.32913 12.0782 1.55163L21.3716 5.23771C21.0862 6.28701 20.3546 8.85999 19.3755 11.4288C18.7429 13.0933 18.0022 14.7556 17.2433 15.9589C16.5092 17.2003 15.6283 17.8106 15.4312 17.7288C14.2599 17.7496 13.4367 16.8535 12.8824 15.7051C12.6493 15.1998 12.468 14.6787 12.3405 14.1474C12.2349 13.7188 12.2028 13.4497 12.2003 13.4497C12.1872 13.3413 12.1407 13.2376 12.0655 13.1489C11.9903 13.0601 11.889 12.9893 11.7714 12.9435L1.08158 8.69909C0.959788 8.65077 0.824947 8.63046 0.690781 8.6402C0.556616 8.64995 0.427917 8.68941 0.317785 8.75457C0.208293 8.82033 0.121564 8.90938 0.0664868 9.0126C0.0114094 9.11582 -0.0100356 9.2295 0.00434943 9.34198C0.0109481 9.37389 0.165192 10.625 0.785465 11.9337C1.21603 12.8491 1.946 13.888 3.13293 14.413L13.8194 18.6643L13.8244 18.656C14.288 18.8606 14.8142 18.9938 15.4303 19C16.9126 18.9189 17.7209 17.8432 18.5795 16.5553C21.054 12.6092 22.9677 5.04283 22.9825 5.01509C23.0191 4.87501 22.9979 4.72862 22.9223 4.60003C22.8468 4.47145 22.7214 4.36834 22.5668 4.30769L22.5643 4.30631Z" fill="#8A8787"/>
</svg>
