<svg width="28" height="22" viewBox="0 0 28 22" fill="none" xmlns="http://www.w3.org/2000/svg">
<path d="M12.8472 20.7594C12.9757 20.9493 13.1475 21.1045 13.348 21.2117C13.5485 21.319 13.7716 21.375 13.9981 21.375C14.2246 21.375 14.4477 21.319 14.6482 21.2117C14.8487 21.1045 15.0205 20.9493 15.149 20.7594L27.75 2.23567C27.8958 2.02202 27.9814 1.77177 27.9973 1.51211C28.0132 1.25246 27.9589 0.993332 27.8403 0.762884C27.7216 0.532436 27.5432 0.339481 27.3244 0.204984C27.1056 0.0704871 26.8547 -0.000408012 26.5991 1.76638e-06H1.39712C1.14208 0.00107388 0.892149 0.0728807 0.674212 0.2077C0.456274 0.342519 0.278572 0.535249 0.160215 0.765164C0.0418579 0.995079 -0.0126754 1.25348 0.00247931 1.51258C0.017634 1.77168 0.101903 2.02167 0.246225 2.23567L12.8472 20.7594Z" fill="#656262"/>
</svg>
