<svg width="18" height="18" viewBox="0 0 18 18" fill="none" xmlns="http://www.w3.org/2000/svg">
<path d="M2.24996 9.74997H2.99996V15C2.99996 15.8272 3.67271 16.5 4.49996 16.5H13.5C14.3272 16.5 15 15.8272 15 15V9.74997H15.75C15.8983 9.74994 16.0432 9.70593 16.1666 9.62352C16.2899 9.54111 16.386 9.42398 16.4427 9.28696C16.4995 9.14993 16.5143 8.99916 16.4854 8.8537C16.4565 8.70823 16.3851 8.57461 16.2802 8.46972L9.53021 1.71972C9.46062 1.65001 9.37797 1.59471 9.28698 1.55697C9.196 1.51924 9.09846 1.49982 8.99996 1.49982C8.90146 1.49982 8.80393 1.51924 8.71294 1.55697C8.62196 1.59471 8.5393 1.65001 8.46971 1.71972L1.71971 8.46972C1.61486 8.57461 1.54345 8.70823 1.51452 8.8537C1.4856 8.99916 1.50045 9.14993 1.5572 9.28696C1.61396 9.42398 1.71006 9.54111 1.83337 9.62352C1.95668 9.70593 2.10165 9.74994 2.24996 9.74997ZM7.49996 15V11.25H10.5V15H7.49996ZM8.99996 3.31047L13.5 7.81047V11.25L13.5007 15H12V11.25C12 10.4227 11.3272 9.74997 10.5 9.74997H7.49996C6.67271 9.74997 5.99996 10.4227 5.99996 11.25V15H4.49996V7.81047L8.99996 3.31047Z" fill="black"/>
</svg>
