<svg width="49" height="38" viewBox="0 0 49 38" fill="none" xmlns="http://www.w3.org/2000/svg">
<path d="M13.5639 31L34.6881 31C35.2736 30.9998 36.0809 31 36.6383 31C37.1588 30.7632 37.4128 30.421 37.753 30L45.4426 20C45.666 19.7248 46 19.3387 46 19C46 18.6613 45.666 18.2753 45.4426 18L37.1958 8C36.6385 7.5 37.1958 8 36.6385 7.5C36.0811 7 35.395 7.00021 34.8096 7L13.2294 7.00001C11.2007 7.00001 11 7.45763 11 9.25001V28.75C11 30.5424 11.5351 31 13.5639 31ZM13.5639 9.25001L34.6881 9.25001L42.5713 19L34.6881 28.75L13.5639 28.75V9.25001Z" fill="#8A8787"/>
</svg>
