<svg width="18" height="14" viewBox="0 0 18 14" fill="none" xmlns="http://www.w3.org/2000/svg">
<path d="M1.80002 14L12.1366 14C12.4231 13.9999 12.7054 13.9333 12.9601 13.8058C13.2148 13.6782 13.4345 13.4934 13.6009 13.2668L17.8319 7.50838C17.9412 7.36017 18 7.18238 18 7C18 6.81762 17.9412 6.63983 17.8319 6.49162L13.6009 0.73325C13.4345 0.506559 13.2148 0.321768 12.9601 0.194235C12.7054 0.0667019 12.4231 0.000112534 12.1366 0L1.80002 0C0.807308 0 0 0.784875 0 1.75V12.25C0 13.2151 0.807308 14 1.80002 14ZM1.80002 1.75L12.1366 1.75L15.9941 7L12.1366 12.25L1.80002 12.25V1.75Z" fill="black"/>
</svg>
