<svg width="18" height="18" viewBox="0 0 18 18" fill="none" xmlns="http://www.w3.org/2000/svg">
<path d="M13 10.8H5C4.73478 10.8 4.48043 10.8948 4.29289 11.0636C4.10536 11.2324 4 11.4613 4 11.7C4 11.9387 4.10536 12.1676 4.29289 12.3364C4.48043 12.5052 4.73478 12.6 5 12.6H13C13.2652 12.6 13.5196 12.5052 13.7071 12.3364C13.8946 12.1676 14 11.9387 14 11.7C14 11.4613 13.8946 11.2324 13.7071 11.0636C13.5196 10.8948 13.2652 10.8 13 10.8ZM13 7.2H7C6.73478 7.2 6.48043 7.29482 6.29289 7.4636C6.10536 7.63239 6 7.8613 6 8.1C6 8.33869 6.10536 8.56761 6.29289 8.7364C6.48043 8.90518 6.73478 9 7 9H13C13.2652 9 13.5196 8.90518 13.7071 8.7364C13.8946 8.56761 14 8.33869 14 8.1C14 7.8613 13.8946 7.63239 13.7071 7.4636C13.5196 7.29482 13.2652 7.2 13 7.2ZM17 1.8H14V0.9C14 0.661305 13.8946 0.432387 13.7071 0.263604C13.5196 0.0948211 13.2652 0 13 0C12.7348 0 12.4804 0.0948211 12.2929 0.263604C12.1054 0.432387 12 0.661305 12 0.9V1.8H10V0.9C10 0.661305 9.89464 0.432387 9.70711 0.263604C9.51957 0.0948211 9.26522 0 9 0C8.73478 0 8.48043 0.0948211 8.29289 0.263604C8.10536 0.432387 8 0.661305 8 0.9V1.8H6V0.9C6 0.661305 5.89464 0.432387 5.70711 0.263604C5.51957 0.0948211 5.26522 0 5 0C4.73478 0 4.48043 0.0948211 4.29289 0.263604C4.10536 0.432387 4 0.661305 4 0.9V1.8H1C0.734784 1.8 0.48043 1.89482 0.292893 2.0636C0.105357 2.23239 0 2.46131 0 2.7V15.3C0 16.0161 0.316071 16.7028 0.87868 17.2092C1.44129 17.7155 2.20435 18 3 18H15C15.7956 18 16.5587 17.7155 17.1213 17.2092C17.6839 16.7028 18 16.0161 18 15.3V2.7C18 2.46131 17.8946 2.23239 17.7071 2.0636C17.5196 1.89482 17.2652 1.8 17 1.8V1.8ZM16 15.3C16 15.5387 15.8946 15.7676 15.7071 15.9364C15.5196 16.1052 15.2652 16.2 15 16.2H3C2.73478 16.2 2.48043 16.1052 2.29289 15.9364C2.10536 15.7676 2 15.5387 2 15.3V3.6H4V4.5C4 4.73869 4.10536 4.96761 4.29289 5.1364C4.48043 5.30518 4.73478 5.4 5 5.4C5.26522 5.4 5.51957 5.30518 5.70711 5.1364C5.89464 4.96761 6 4.73869 6 4.5V3.6H8V4.5C8 4.73869 8.10536 4.96761 8.29289 5.1364C8.48043 5.30518 8.73478 5.4 9 5.4C9.26522 5.4 9.51957 5.30518 9.70711 5.1364C9.89464 4.96761 10 4.73869 10 4.5V3.6H12V4.5C12 4.73869 12.1054 4.96761 12.2929 5.1364C12.4804 5.30518 12.7348 5.4 13 5.4C13.2652 5.4 13.5196 5.30518 13.7071 5.1364C13.8946 4.96761 14 4.73869 14 4.5V3.6H16V15.3Z" fill="black"/>
</svg>
