<svg width="19" height="19" viewBox="0 0 19 19" fill="none" xmlns="http://www.w3.org/2000/svg">
<path d="M18.6475 18.6471C18.4124 18.8824 18.131 19 17.8032 19C17.4754 19 17.194 18.8824 16.959 18.6471L13.2852 14.9697C11.8008 16.0717 10.1432 16.6227 8.3125 16.6227C7.18685 16.6227 6.11068 16.4029 5.08398 15.9633C4.05729 15.5238 3.17285 14.9326 2.43066 14.1896C1.68848 13.4467 1.09782 12.5645 0.658691 11.543C0.219564 10.5215 0 9.44428 0 8.31134C0 7.1784 0.219564 6.09808 0.658691 5.07038C1.09782 4.04269 1.68848 3.16048 2.43066 2.42375C3.17285 1.68703 4.05729 1.09889 5.08398 0.659335C6.11068 0.219778 7.18685 0 8.3125 0C9.43815 0 10.5143 0.219778 11.541 0.659335C12.5677 1.09889 13.4521 1.68703 14.1943 2.42375C14.9365 3.16048 15.5272 4.04269 15.9663 5.07038C16.4054 6.09808 16.625 7.1753 16.625 8.30205C16.625 10.147 16.0745 11.8061 14.9736 13.2796L18.6475 16.957C18.8825 17.1922 19 17.4739 19 17.8021C19 18.1302 18.8825 18.4119 18.6475 18.6471ZM8.3125 2.37732C7.23633 2.37732 6.24365 2.64044 5.33447 3.16667C4.42529 3.6929 3.70475 4.41414 3.17285 5.3304C2.64095 6.24666 2.375 7.24031 2.375 8.31134C2.375 9.38237 2.64095 10.376 3.17285 11.2923C3.70475 12.2085 4.42529 12.9298 5.33447 13.456C6.24365 13.9822 7.23633 14.2454 8.3125 14.2454C9.38867 14.2454 10.3813 13.9822 11.2905 13.456C12.1997 12.9298 12.9202 12.2085 13.4521 11.2923C13.984 10.376 14.25 9.38237 14.25 8.31134C14.25 7.24031 13.984 6.24666 13.4521 5.3304C12.9202 4.41414 12.1997 3.6929 11.2905 3.16667C10.3813 2.64044 9.38867 2.37732 8.3125 2.37732Z" fill="#9D9B9B"/>
</svg>
