<svg width="21" height="18" viewBox="0 0 21 18" fill="none" xmlns="http://www.w3.org/2000/svg">
<path d="M12.5556 9.01L0.00116668 7.92591L0 1.07332C0.000152724 0.890331 0.0548471 0.710407 0.158895 0.550619C0.262942 0.39083 0.412892 0.256477 0.59452 0.160303C0.776148 0.0641294 0.983431 0.00932497 1.19671 0.00108867C1.40998 -0.00714763 1.62217 0.0314574 1.81315 0.113242L20.3087 8.03992C20.5165 8.12925 20.6912 8.26635 20.8133 8.4359C20.9353 8.60545 21 8.80076 21 9C21 9.19924 20.9353 9.39455 20.8133 9.5641C20.6912 9.73365 20.5165 9.87075 20.3087 9.96008L1.81549 17.8868C1.62451 17.9685 1.41231 18.0071 1.19904 17.9989C0.985765 17.9907 0.778482 17.9359 0.596854 17.8397C0.415226 17.7435 0.265275 17.6092 0.161228 17.4494C0.0571805 17.2896 0.00248637 17.1097 0.00233364 16.9267V10.0741L12.5567 9.01H12.5556Z" fill="#8A8787"/>
</svg>
