<svg width="19" height="19" viewBox="0 0 19 19" fill="none" xmlns="http://www.w3.org/2000/svg">
<path d="M13.4336 19H5.56641L0 13.4336V5.56641L5.56641 0H13.4336L19 5.56641V13.4336L13.4336 19ZM10.6875 2.96875C10.6875 2.80794 10.6287 2.66878 10.5112 2.55127C10.3937 2.43376 10.2546 2.375 10.0938 2.375H8.90625C8.74544 2.375 8.60628 2.43376 8.48877 2.55127C8.37126 2.66878 8.3125 2.80794 8.3125 2.96875V11.2812C8.3125 11.4421 8.37126 11.5812 8.48877 11.6987C8.60628 11.8162 8.74544 11.875 8.90625 11.875H10.0938C10.2546 11.875 10.3937 11.8162 10.5112 11.6987C10.6287 11.5812 10.6875 11.4421 10.6875 11.2812V2.96875ZM10.6875 14.8438C10.6875 14.6829 10.6287 14.5438 10.5112 14.4263C10.3937 14.3088 10.2546 14.25 10.0938 14.25H8.90625C8.74544 14.25 8.60628 14.3088 8.48877 14.4263C8.37126 14.5438 8.3125 14.6829 8.3125 14.8438V16.0312C8.3125 16.1921 8.37126 16.3312 8.48877 16.4487C8.60628 16.5662 8.74544 16.625 8.90625 16.625H10.0938C10.2546 16.625 10.3937 16.5662 10.5112 16.4487C10.6287 16.3312 10.6875 16.1921 10.6875 16.0312V14.8438Z" fill="#8A8787"/>
</svg>
