<svg width="49" height="38" viewBox="0 0 49 38" fill="none" xmlns="http://www.w3.org/2000/svg">
<path d="M11 10H37.1724" stroke="#8A8787" stroke-width="2" stroke-linecap="round" stroke-linejoin="round"/>
<path d="M18.27 10V7C18.27 6.20435 18.5764 5.44129 19.1218 4.87868C19.6671 4.31607 20.4068 4 21.1781 4H26.9942C27.7654 4 28.5051 4.31607 29.0505 4.87868C29.5958 5.44129 29.9022 6.20435 29.9022 7V10M34.2643 10V31C34.2643 31.7956 33.9579 32.5587 33.4125 33.1213C32.8672 33.6839 32.1275 34 31.3562 34H16.816C16.0447 34 15.3051 33.6839 14.7597 33.1213C14.2143 32.5587 13.908 31.7956 13.908 31V10H34.2643Z" stroke="#8A8787" stroke-width="2" stroke-linecap="round" stroke-linejoin="round"/>
<path d="M21.178 17.5V26.5" stroke="#8A8787" stroke-width="2" stroke-linecap="round" stroke-linejoin="round"/>
<path d="M26.9944 17.5V26.5" stroke="#8A8787" stroke-width="2" stroke-linecap="round" stroke-linejoin="round"/>
</svg>
